<svg width="20" height="21" viewBox="0 0 20 21" fill="none" xmlns="http://www.w3.org/2000/svg">
<g clip-path="url(#clip0_620_276)">
<path d="M10 0.512329C6.12102 0.512329 2.96875 3.66467 2.96875 7.54358C2.96875 8.85608 3.33211 10.1335 4.02348 11.235L9.52336 20.2356C9.61719 20.3879 9.75781 20.4817 9.92191 20.5051C10.1445 20.5403 10.3907 20.4465 10.5196 20.2239L16.0352 11.1412C16.6914 10.0631 17.0312 8.80924 17.0312 7.54358C17.0312 3.66467 13.879 0.512329 10 0.512329ZM10 11.0592C8.03133 11.0592 6.48438 9.46545 6.48438 7.54358C6.48438 5.60995 8.06637 4.02795 10 4.02795C11.9336 4.02795 13.5156 5.60995 13.5156 7.54358C13.5156 9.45374 11.9921 11.0592 10 11.0592Z" fill="#FD003A"/>
<path d="M10 0.512329V4.02795C11.9336 4.02795 13.5156 5.60995 13.5156 7.54358C13.5156 9.45374 11.9921 11.0592 10 11.0592V20.512C10.2 20.5166 10.4056 20.4208 10.5195 20.2239L16.0352 11.1412C16.6914 10.0631 17.0312 8.80924 17.0312 7.54358C17.0312 3.66467 13.879 0.512329 10 0.512329Z" fill="#E50027"/>
</g>
<defs>
<clipPath id="clip0_620_276">
<rect width="20" height="20" fill="white" transform="translate(0 0.512329)"/>
</clipPath>
</defs>
</svg>
